<svg width="900" height="900" viewBox="0 0 900 900" fill="none" xmlns="http://www.w3.org/2000/svg">
<path d="M0 450V0H450H900V450V900H450H0V450Z" fill="#311818"/>
<path d="M0 450V0H450H900V450V900H450H0V450ZM527.1 696.9C525.9 696 525 696.9 525 699C525 701.1 525.9 702 527.1 701.1C528 699.9 528 698.1 527.1 696.9ZM521.1 666.9C519.9 666 519 666.9 519 669C519 671.1 519.9 672 521.1 671.1C522 669.9 522 668.1 521.1 666.9ZM342 655.5C346.2 649.8 346.2 649.8 341.4 653.7C338.4 655.8 336 659.1 336 660.9C336 662.7 336.3 663.3 336.9 662.7C337.2 662.1 339.6 658.8 342 655.5ZM521.1 648.9C519.9 648 519 648.9 519 651C519 653.1 519.9 654 521.1 653.1C522 651.9 522 650.1 521.1 648.9ZM476.1 630.9C474.9 630 473.1 630 471.9 630.9C471 632.1 471.9 633 474 633C476.1 633 477 632.1 476.1 630.9ZM525.9 611.7C524.4 610.2 524.1 615 525 621.9C526.2 634.2 526.5 634.2 527.4 624.3C528 618.9 527.4 613.2 525.9 611.7ZM417 625.8C417 625.2 414.9 623.7 412.2 622.8C409.8 621.9 408.6 622.2 409.5 624C411.3 627 417 628.2 417 625.8ZM517.5 612C518.4 610.5 518.7 609 517.8 609C516.9 609 515.4 610.5 514.5 612C513.6 613.8 513.3 615 514.2 615C515.1 615 516.6 613.8 517.5 612ZM385.5 609C386.4 607.5 386.7 606 385.8 606C384.9 606 383.4 607.5 382.5 609C381.6 610.8 381.3 612 382.2 612C383.1 612 384.6 610.8 385.5 609Z" fill="#311629"/>
<path d="M0 450V0H450H900V450V900H450H0V450ZM501.3 711.9C514.8 707.7 526.2 702.3 527.1 699.9C528 697.5 526.5 687.6 523.8 677.7C519 661.2 519 658.5 523.2 643.8C532.5 611.7 528 603.3 508.5 616.2C476.1 638.1 434.1 637.8 398.7 615.3L384.9 606.6L360.3 633C347.1 647.7 336 661.2 336 663.3C336 665.1 342.9 673.5 351.3 681.3C390 717.9 447.9 729.6 501.3 711.9Z" fill="#3C2611"/>
<path d="M0 450V0H450H900V450V900H450H0V450ZM500.4 712.2C531.3 702 531.6 701.7 525.9 685.2C521.4 671.7 521.4 668.1 527.1 624.9C529.2 608.4 523.8 606 508.5 616.2C476.1 638.1 434.1 637.8 398.4 615.3L384.6 606.3L360.3 633C346.8 647.4 336 661.2 336 663C336 665.1 342.9 673.5 351.3 681.3C389.7 717.6 448.5 729.6 500.4 712.2ZM503.1 567.9C501.9 567 501 567.9 501 570C501 572.1 501.9 573 503.1 572.1C504 570.9 504 569.1 503.1 567.9ZM413.7 551.7C420 544.8 424.2 525.9 422.4 511.8C421.8 506.7 418.2 501.6 412.5 498L403.5 492.3V525.3C403.5 543.3 404.4 558 405.6 558C406.8 558 410.4 555 413.7 551.7ZM501.9 551.7C502.8 548.4 502.8 538.5 501.9 529.5C500.7 516.9 501.6 510.6 506.7 500.4C510 492.9 513 486.3 513 485.1C513 483.9 506.4 487.5 498 492.6C483.9 501.9 483 503.4 482.7 516C482.4 523.5 482.7 531 483 532.5C483.6 534.3 484.5 538.8 485.4 543C486.6 549.9 493.5 558 498.3 558C499.5 558 501 555.3 501.9 551.7Z" fill="#4B2D05" fill-opacity="0.55"/>
<path d="M0 450V0H450H900V450V900H450H0V450ZM500.4 712.2C531 702 532.8 700.2 526.2 684.3C521.4 672 521.4 666.3 526.8 627.9C527.7 621 527.4 613.5 525.9 610.8C523.8 606.9 521.4 607.5 510.3 615.3C475.8 638.4 434.7 638.4 398.1 615L383.7 606L374.1 617.4C368.7 623.4 358.2 635.4 350.4 643.8C342.3 652.2 336 660.9 336 663C336 665.1 342.9 673.5 351.3 681.3C389.7 717.6 448.5 729.6 500.4 712.2ZM392.1 582.9C390.9 582 390 582.9 390 585C390 587.1 390.9 588 392.1 587.1C393 585.9 393 584.1 392.1 582.9ZM395.1 573.9C393.9 573 393 573.9 393 576C393 578.1 393.9 579 395.1 578.1C396 576.9 396 575.1 395.1 573.9ZM503.1 567.9C501.9 567 501 567.9 501 570C501 572.1 501.9 573 503.1 572.1C504 570.9 504 569.1 503.1 567.9ZM398.1 564.9C396.9 564 396 564.9 396 567C396 569.1 396.9 570 398.1 569.1C399 567.9 399 566.1 398.1 564.9ZM289.5 564C290.4 562.5 290.7 561 289.8 561C288.9 561 287.4 562.5 286.5 564C285.6 565.8 285.3 567 286.2 567C287.1 567 288.6 565.8 289.5 564ZM419.7 542.7C421.5 537.3 423 526.5 423 518.7C423 507.3 421.8 503.4 417 501C413.7 499.2 403.2 491.7 393.6 484.2L376.5 470.7L390.9 483.9L405 496.8V521.1C405 534.6 403.8 549 402 553.5C399 561 399 561 407.7 556.5C412.5 554.1 417.9 548.1 419.7 542.7ZM502.5 535.2C501 508.8 504 498.9 519.3 481.5L529.5 469.5L520.5 476.4C515.7 480.3 505.2 487.5 497.4 492.9C489.6 498.3 483 504.9 482.7 507.9C480.6 540.9 486.6 557.7 500.4 558C503.1 558 503.7 552.3 502.5 535.2ZM282 451.8C282 450.9 280.5 449.4 278.4 448.2C276.3 447 276 447.3 277.2 449.4C279.3 453 282 454.2 282 451.8ZM566.1 375.9C565.2 372.9 564.6 375.3 564.6 381C564.6 386.7 565.2 389.1 566.1 386.4C566.7 383.4 566.7 378.6 566.1 375.9ZM566.1 339.9C564.9 339 564 339.9 564 342C564 344.1 564.9 345 566.1 344.1C567 342.9 567 341.1 566.1 339.9ZM513 200.1C513 199.5 510 196.5 506.4 193.2L499.5 187.5L505.2 194.4C510.6 200.7 513 202.5 513 200.1ZM403.5 183.6C402.6 182.7 400.2 183.6 398.1 185.7C395.4 188.7 395.7 189 399.9 187.2C402.9 186.3 404.4 184.5 403.5 183.6ZM479.1 177.9C477.9 177 476.1 177 474.9 177.9C474 179.1 474.9 180 477 180C479.1 180 480 179.1 479.1 177.9ZM373.5 141C374.4 139.5 374.7 138 373.8 138C372.9 138 371.4 139.5 370.5 141C369.6 142.8 369.3 144 370.2 144C371.1 144 372.6 142.8 373.5 141Z" fill="#583302" fill-opacity="0.55"/>
<path d="M0 450V0H450H900V450V900H450H0V450ZM351 735.6C351 734.4 347.1 729 342 723.6C337.2 718.2 332.4 710.7 331.8 707.1C327.6 687 327.3 675.6 330.9 670.8C334.5 666 336 666.9 350.7 680.7C389.7 717.6 448.2 729.9 500.4 712.2C513 708 525 703.2 527.1 701.4C531 698.1 537 700.5 537 705.3C537 706.8 540 712.2 543.6 717C549.9 725.7 550.2 725.7 555.9 720.6C559.2 717.9 567.3 706.8 574.2 696C581.1 685.2 591.3 672 596.7 666.9C606.6 657 624.3 647.1 631.8 647.1C634.2 647.1 636 645.6 636 644.1C636 642.3 636.9 642 638.1 643.2C641.1 646.2 660 626.7 660 620.4C660 613.2 642.3 579.9 633.6 570C616.5 551.4 615 544.8 613.2 476.4C610.2 349.2 602.7 259.2 593.7 242.7C592.5 240 590.4 233.4 589.5 227.7C588.6 222 585.6 214.5 583.2 210.9C580.8 207.3 578.7 201.9 578.1 198.9C577.2 192.6 570.3 180.3 570 184.5C570 186 566.4 182.1 562.2 175.8C540.6 144 510.6 127.5 462.9 121.2C431.1 117 416.1 118.2 394.5 126.6C380.4 132 351.9 155.1 339.3 171C323.7 190.5 285 270.9 285 283.2C285 285.9 283.5 288 281.7 288C280.2 288 279.3 289.2 280.2 290.4C281.7 292.8 274.8 323.4 270.9 333C265.2 346.2 262.8 398.4 266.7 417.6C270.6 435.3 286.2 468 299.1 484.8C303 490.2 306 495.6 305.4 496.8C305.1 498.3 306 504.9 307.2 511.5C309.9 526.8 306.6 535.8 288.3 562.5C264.6 597 255.6 645.3 267 676.2C273.9 694.2 290.7 718.5 296.4 718.5C298.2 718.5 301.5 720.3 303.6 722.4C305.4 724.2 308.7 726 310.8 726C312.6 726 315.9 727.8 318 730.2C322.8 736.5 351 741 351 735.6ZM541.2 721.2C543.6 714.9 539.1 716.1 534.9 723C531.6 727.8 531.9 728.4 535.2 727.2C537.6 726.3 540.3 723.6 541.2 721.2Z" fill="#4B2D05" fill-opacity="0.55"/>
<path d="M426.9 628.5C413.1 624.3 388.5 610.8 385.5 606C384.3 604.2 386.1 598.5 389.4 593.1C392.7 588 396.9 577.8 398.7 570.9C401.1 562.5 404.4 557.7 408.3 556.5C416.1 553.8 422.4 539.1 423.9 520.5C424.8 507 424.5 506.4 411.3 497.1C392.7 484.5 364.8 454.8 355.5 437.7C348.6 424.5 345 397.2 348.6 384C349.5 381.6 353.7 368.1 358.2 354C364.8 333.3 366.6 321.3 367.8 288C370.5 218.4 377.4 199.2 404.4 186.6C418.8 180 425.7 178.8 448.5 178.8C492.6 178.8 508.5 189.6 531.6 234.9C561 293.1 571.5 372.6 556.8 421.8C548.7 447.9 520.5 479.7 486.6 500.7C477.3 506.4 482.7 549.6 493.8 557.1C497.7 559.5 501 564.6 501 568.2C501 571.8 505.5 582.3 510.9 591.6L521.1 608.1L510.9 615C486.9 631.5 453 636.9 426.9 628.5Z" fill="#4B2D05" fill-opacity="0.55"/>
<path d="M0 450V0H450H900V450V900H450H0V450ZM375.9 732.6C391.5 723.6 389.4 719.1 372.6 725.7C357.9 731.4 357.9 731.4 348.3 725.7C342.9 722.4 336.6 715.2 334.2 709.5C329.4 697.5 328.5 673.2 333 670.5C334.8 669.3 343.2 674.7 351.9 682.5C393.6 719.1 450.3 729.9 504 711C534.3 700.5 533.1 700.5 537 708C539.7 712.8 538.2 715.8 529.2 726L518.4 738H526.8C541.5 738 553.5 727.8 575.7 696.3C598.8 663.6 604.8 658.5 630.9 648C649.8 640.5 660 630.3 660 618.9C660 610.2 650.7 591.3 637.5 573C615.6 542.4 614.7 539.7 613.2 471.6C609.6 313.8 601.5 245.4 581.7 206.1C578.4 200.1 576.6 195 577.5 195C581.4 195 558.9 167.1 543.9 152.7C524.7 134.4 507.6 126.9 472.5 120.9C427.2 113.4 398.7 118.8 367.8 141.3C317.7 177.3 269.7 285.9 264.9 375C262.5 417.9 266.4 434.4 287.1 468.6C301.2 491.7 304.2 499.5 305.4 513.6C306.6 529.5 306 531.6 292.8 551.7C274.5 580.2 268.5 592.5 264 611.7C258.9 633.6 261.3 666.9 269.7 685.5C288.9 729 342 752.4 375.9 732.6Z" fill="#A04747"/>
<path d="M0 450V0H450H900V259.8V519.3L893.1 513.9C886.5 508.5 784.5 402.6 687 300C597.3 205.2 578.1 186.3 575.1 188.1C573.3 189 573 188.4 573.9 186.9C577.8 180.9 537.9 141.9 518.1 132C495 120.6 444.6 113.4 418.2 117.6C373.5 124.5 329.1 167.1 301.5 228.9C293.1 248.4 277.8 293.1 274.2 309C273 314.7 271.8 320.1 271.5 321C264.9 348 263.7 362.7 264.6 393.9C265.2 424.2 266.7 432.9 272.1 444C280.2 460.5 294 483.9 296.7 486C297.9 486.9 300.6 492 302.7 497.1C309 512.7 304.5 532.5 289.5 555C265.5 591.3 263.1 598.2 261.6 634.8C260.4 666.3 260.7 668.7 268.8 685.8C276.3 702 286.2 713.7 306.9 731.4C311.4 735 316.2 738 317.7 738C319.5 738 321.6 739.5 322.8 741.6C324.3 743.7 321 742.5 321 742.5C312 736.8 327.9 754.5 381.6 810.3C444.9 876 462 894.6 462 897.9C462 899.1 358.2 900 231 900H0V450Z" fill="#F35761" fill-opacity="0.89"/>
<path d="M435.3 629.7C419.1 626.7 398.7 616.8 391.5 609C386.4 603.3 386.4 602.4 392.7 588.3C396 580.2 399 571.8 399 569.7C399 567.9 403.8 561.9 409.8 556.8C420.6 547.2 425.7 533.7 426 513.9C426 505.5 423.9 502.8 410.4 494.1C390.6 481.5 363 452.4 354.3 435.9C348.3 424.2 345.3 396 348.6 384C349.5 381.6 353.7 368.1 358.2 354.3C364.8 333.9 366.6 320.1 368.7 280.8C371.7 226.2 374.7 214.2 387.3 199.8C400.8 184.2 416.7 179.1 448.8 179.1C480.6 179.4 493.5 184.5 510.9 203.7C542.4 238.8 567 321.9 563.1 380.7C559.8 430.5 547.2 453 503.7 486.9C482.7 503.4 480 506.7 480 515.4C480 532.8 486.3 552 493.8 557.1C497.7 559.5 501 564.6 501 567.9C501 571.2 505.2 581.4 510.3 590.7C519.3 606.6 519.6 607.2 514.2 611.4C494.4 626.7 459.9 634.5 435.3 629.7Z" fill="#D29377"/>
<path d="M415.5 622.8C407.4 618.6 397.2 612.9 393.6 609.6L386.4 604.2L392.4 590.7C395.7 583.5 399.3 573.9 400.2 569.4C401.4 564.6 403.8 561 406.2 561C411.9 561 420 551.1 424.8 537.9C428.1 529.2 429 528.6 428.1 534.9C426.9 542.4 427.5 543 437.4 543C446.1 543 450.6 540.3 462.6 528C470.7 519.9 477.6 513 478.2 513C478.8 513 480.3 520.8 481.5 530.1C483 543 485.7 549 492.3 555.6C497.1 560.4 501 567 501 570.3C501 576.9 508.5 592.8 514.8 600.3C518.4 604.5 518.4 605.7 513.9 609.6C499.8 622.2 482.1 628.2 456.3 629.1C434.1 630 428.4 629.1 415.5 622.8Z" fill="#F1AA8B"/>
<path d="M426.6 516C426.6 510.3 427.2 507.9 428.099 510.9C428.699 513.6 428.699 518.4 428.099 521.4C427.2 524.1 426.6 521.7 426.6 516Z" fill="#F1AA8B"/>
<path d="M438.9 506.7C422.4 503.4 403.8 491.1 384 471C346.2 432.9 340.5 409.2 357.3 359.4C365.1 335.4 366.9 324.9 369 283.5C373.5 200.7 385.5 183.3 441.3 180.6C482.7 178.5 500.1 187.2 521.7 220.2C528.6 230.4 537 247.8 540.3 258.3C543.9 268.8 548.1 278.7 549.3 280.2C550.8 282 552 286.5 552 290.4C552 294.3 553.5 300 555.3 303.6C557.1 306.9 559.8 325.8 561 345.6C565.2 405.3 556.5 435.6 527.1 465.3C517.8 474.6 503.7 486.6 495.3 492C486.9 497.7 480 503.4 480 505.2C480 508.8 453.3 509.7 438.9 506.7Z" fill="#F1AA8B"/>
<rect width="3.64728" height="13.3354" transform="matrix(0.782054 -0.623212 0.62322 0.782046 315 737.273)" fill="#A04751"/>
</svg>
